<mxfile host="app.diagrams.net" modified="2021-01-11T04:35:42.822Z" agent="5.0 (Windows NT 10.0; Win64; x64) AppleWebKit/537.36 (KHTML, like Gecko) Chrome/87.0.4280.88 Safari/537.36" etag="CuS1MqM_Cj87rIsrmyY9" version="14.1.8" type="github" pages="2">
  <diagram id="wu7fYshYDeyZRAyVXoCj" name="MCU_Frame">
    <mxGraphModel dx="1115" dy="751" grid="1" gridSize="10" guides="1" tooltips="1" connect="1" arrows="1" fold="1" page="1" pageScale="1" pageWidth="827" pageHeight="1169" math="0" shadow="0">
      <root>
        <mxCell id="0" />
        <mxCell id="1" parent="0" />
        <mxCell id="0PUmPbpPbkksMGmGsOkH-1" value="&lt;font style=&quot;font-size: 18px&quot;&gt;&lt;b&gt;STM32F103&lt;/b&gt;&lt;/font&gt;" style="rounded=0;whiteSpace=wrap;html=1;strokeWidth=3;" vertex="1" parent="1">
          <mxGeometry x="320" y="240" width="200" height="400" as="geometry" />
        </mxCell>
        <mxCell id="0PUmPbpPbkksMGmGsOkH-2" value="&lt;font style=&quot;font-size: 18px&quot;&gt;DSP&lt;/font&gt;" style="rounded=1;whiteSpace=wrap;html=1;strokeWidth=3;" vertex="1" parent="1">
          <mxGeometry x="620" y="545" width="80" height="80" as="geometry" />
        </mxCell>
        <mxCell id="0PUmPbpPbkksMGmGsOkH-3" value="" style="endArrow=classic;html=1;strokeWidth=3;startArrow=classic;startFill=1;" edge="1" parent="1">
          <mxGeometry relative="1" as="geometry">
            <mxPoint x="520" y="600" as="sourcePoint" />
            <mxPoint x="620" y="600" as="targetPoint" />
          </mxGeometry>
        </mxCell>
        <mxCell id="0PUmPbpPbkksMGmGsOkH-4" value="SPI" style="edgeLabel;resizable=0;html=1;align=center;verticalAlign=middle;" connectable="0" vertex="1" parent="0PUmPbpPbkksMGmGsOkH-3">
          <mxGeometry relative="1" as="geometry" />
        </mxCell>
        <mxCell id="0PUmPbpPbkksMGmGsOkH-5" value="" style="endArrow=classic;html=1;strokeWidth=3;startArrow=classic;startFill=1;entryX=0;entryY=0.5;entryDx=0;entryDy=0;" edge="1" parent="1" target="0PUmPbpPbkksMGmGsOkH-29">
          <mxGeometry relative="1" as="geometry">
            <mxPoint x="520" y="279.5" as="sourcePoint" />
            <mxPoint x="650" y="279.5" as="targetPoint" />
          </mxGeometry>
        </mxCell>
        <mxCell id="0PUmPbpPbkksMGmGsOkH-6" value="I2C" style="edgeLabel;resizable=0;html=1;align=center;verticalAlign=middle;" connectable="0" vertex="1" parent="0PUmPbpPbkksMGmGsOkH-5">
          <mxGeometry relative="1" as="geometry" />
        </mxCell>
        <mxCell id="0PUmPbpPbkksMGmGsOkH-7" value="" style="endArrow=classic;html=1;strokeWidth=3;" edge="1" parent="1">
          <mxGeometry relative="1" as="geometry">
            <mxPoint x="320" y="279.5799999999999" as="sourcePoint" />
            <mxPoint x="200" y="280.0000000000001" as="targetPoint" />
          </mxGeometry>
        </mxCell>
        <mxCell id="0PUmPbpPbkksMGmGsOkH-8" value="GPIO" style="edgeLabel;resizable=0;html=1;align=center;verticalAlign=middle;" connectable="0" vertex="1" parent="0PUmPbpPbkksMGmGsOkH-7">
          <mxGeometry relative="1" as="geometry" />
        </mxCell>
        <mxCell id="0PUmPbpPbkksMGmGsOkH-9" value="" style="endArrow=classic;html=1;strokeWidth=3;" edge="1" parent="1">
          <mxGeometry relative="1" as="geometry">
            <mxPoint x="200" y="410" as="sourcePoint" />
            <mxPoint x="320" y="410" as="targetPoint" />
          </mxGeometry>
        </mxCell>
        <mxCell id="0PUmPbpPbkksMGmGsOkH-10" value="GPIO" style="edgeLabel;resizable=0;html=1;align=center;verticalAlign=middle;" connectable="0" vertex="1" parent="0PUmPbpPbkksMGmGsOkH-9">
          <mxGeometry relative="1" as="geometry" />
        </mxCell>
        <mxCell id="0PUmPbpPbkksMGmGsOkH-11" value="" style="endArrow=classic;html=1;strokeWidth=3;" edge="1" parent="1">
          <mxGeometry relative="1" as="geometry">
            <mxPoint x="320" y="319.99999999999966" as="sourcePoint" />
            <mxPoint x="200" y="320.0000000000001" as="targetPoint" />
          </mxGeometry>
        </mxCell>
        <mxCell id="0PUmPbpPbkksMGmGsOkH-12" value="GPIO" style="edgeLabel;resizable=0;html=1;align=center;verticalAlign=middle;" connectable="0" vertex="1" parent="0PUmPbpPbkksMGmGsOkH-11">
          <mxGeometry relative="1" as="geometry" />
        </mxCell>
        <mxCell id="0PUmPbpPbkksMGmGsOkH-13" value="" style="endArrow=classic;html=1;strokeWidth=3;" edge="1" parent="1">
          <mxGeometry relative="1" as="geometry">
            <mxPoint x="320" y="359.99999999999966" as="sourcePoint" />
            <mxPoint x="200" y="360.0000000000001" as="targetPoint" />
          </mxGeometry>
        </mxCell>
        <mxCell id="0PUmPbpPbkksMGmGsOkH-14" value="GPIO" style="edgeLabel;resizable=0;html=1;align=center;verticalAlign=middle;" connectable="0" vertex="1" parent="0PUmPbpPbkksMGmGsOkH-13">
          <mxGeometry relative="1" as="geometry" />
        </mxCell>
        <mxCell id="0PUmPbpPbkksMGmGsOkH-15" value="" style="endArrow=classic;html=1;strokeWidth=3;startArrow=classic;startFill=1;" edge="1" parent="1">
          <mxGeometry relative="1" as="geometry">
            <mxPoint x="520" y="480" as="sourcePoint" />
            <mxPoint x="680" y="481" as="targetPoint" />
          </mxGeometry>
        </mxCell>
        <mxCell id="0PUmPbpPbkksMGmGsOkH-16" value="UART" style="edgeLabel;resizable=0;html=1;align=center;verticalAlign=middle;" connectable="0" vertex="1" parent="0PUmPbpPbkksMGmGsOkH-15">
          <mxGeometry relative="1" as="geometry" />
        </mxCell>
        <mxCell id="0PUmPbpPbkksMGmGsOkH-17" value="" style="endArrow=classic;html=1;strokeWidth=3;" edge="1" parent="1">
          <mxGeometry relative="1" as="geometry">
            <mxPoint x="320" y="499.9999999999998" as="sourcePoint" />
            <mxPoint x="200" y="500" as="targetPoint" />
          </mxGeometry>
        </mxCell>
        <mxCell id="0PUmPbpPbkksMGmGsOkH-18" value="GPIO" style="edgeLabel;resizable=0;html=1;align=center;verticalAlign=middle;" connectable="0" vertex="1" parent="0PUmPbpPbkksMGmGsOkH-17">
          <mxGeometry relative="1" as="geometry" />
        </mxCell>
        <mxCell id="0PUmPbpPbkksMGmGsOkH-19" value="" style="endArrow=classic;html=1;strokeWidth=3;" edge="1" parent="1">
          <mxGeometry relative="1" as="geometry">
            <mxPoint x="200" y="450" as="sourcePoint" />
            <mxPoint x="320" y="449.9999999999998" as="targetPoint" />
          </mxGeometry>
        </mxCell>
        <mxCell id="0PUmPbpPbkksMGmGsOkH-20" value="GPIO" style="edgeLabel;resizable=0;html=1;align=center;verticalAlign=middle;" connectable="0" vertex="1" parent="0PUmPbpPbkksMGmGsOkH-19">
          <mxGeometry relative="1" as="geometry" />
        </mxCell>
        <mxCell id="0PUmPbpPbkksMGmGsOkH-21" value="" style="aspect=fixed;pointerEvents=1;shadow=0;dashed=0;html=1;strokeColor=none;labelPosition=center;verticalLabelPosition=bottom;verticalAlign=top;align=center;fillColor=#00188D;shape=mxgraph.mscae.enterprise.usb" vertex="1" parent="1">
          <mxGeometry x="690" y="470" width="50" height="23" as="geometry" />
        </mxCell>
        <mxCell id="0PUmPbpPbkksMGmGsOkH-22" value="" style="endArrow=classic;html=1;strokeWidth=3;entryX=0;entryY=0.25;entryDx=0;entryDy=0;startArrow=classic;startFill=1;" edge="1" parent="1">
          <mxGeometry relative="1" as="geometry">
            <mxPoint x="160" y="600" as="sourcePoint" />
            <mxPoint x="320" y="600" as="targetPoint" />
          </mxGeometry>
        </mxCell>
        <mxCell id="0PUmPbpPbkksMGmGsOkH-23" value="UART" style="edgeLabel;resizable=0;html=1;align=center;verticalAlign=middle;" connectable="0" vertex="1" parent="0PUmPbpPbkksMGmGsOkH-22">
          <mxGeometry relative="1" as="geometry" />
        </mxCell>
        <mxCell id="0PUmPbpPbkksMGmGsOkH-24" value="" style="endArrow=classic;html=1;strokeWidth=3;" edge="1" parent="1">
          <mxGeometry relative="1" as="geometry">
            <mxPoint x="520" y="389.99999999999966" as="sourcePoint" />
            <mxPoint x="620" y="389.99999999999966" as="targetPoint" />
          </mxGeometry>
        </mxCell>
        <mxCell id="0PUmPbpPbkksMGmGsOkH-25" value="GPIO" style="edgeLabel;resizable=0;html=1;align=center;verticalAlign=middle;" connectable="0" vertex="1" parent="0PUmPbpPbkksMGmGsOkH-24">
          <mxGeometry relative="1" as="geometry">
            <mxPoint x="1" as="offset" />
          </mxGeometry>
        </mxCell>
        <mxCell id="0PUmPbpPbkksMGmGsOkH-26" value="ACCorHOST" style="text;html=1;align=center;verticalAlign=middle;resizable=0;points=[];autosize=1;" vertex="1" parent="1">
          <mxGeometry x="99" y="440" width="80" height="20" as="geometry" />
        </mxCell>
        <mxCell id="0PUmPbpPbkksMGmGsOkH-27" value="" style="endArrow=classic;html=1;strokeWidth=3;" edge="1" parent="1">
          <mxGeometry relative="1" as="geometry">
            <mxPoint x="620" y="359.99999999999966" as="sourcePoint" />
            <mxPoint x="520" y="359.99999999999966" as="targetPoint" />
          </mxGeometry>
        </mxCell>
        <mxCell id="0PUmPbpPbkksMGmGsOkH-28" value="GPIO" style="edgeLabel;resizable=0;html=1;align=center;verticalAlign=middle;" connectable="0" vertex="1" parent="0PUmPbpPbkksMGmGsOkH-27">
          <mxGeometry relative="1" as="geometry" />
        </mxCell>
        <mxCell id="0PUmPbpPbkksMGmGsOkH-29" value="&lt;font style=&quot;font-size: 18px&quot;&gt;EEPROM&lt;/font&gt;" style="rounded=1;whiteSpace=wrap;html=1;strokeWidth=3;" vertex="1" parent="1">
          <mxGeometry x="730" y="240" width="80" height="80" as="geometry" />
        </mxCell>
        <mxCell id="0PUmPbpPbkksMGmGsOkH-30" style="edgeStyle=orthogonalEdgeStyle;rounded=0;orthogonalLoop=1;jettySize=auto;html=1;exitX=0.5;exitY=0;exitDx=0;exitDy=0;strokeWidth=3;entryX=0.5;entryY=0;entryDx=0;entryDy=0;" edge="1" parent="1" target="0PUmPbpPbkksMGmGsOkH-31">
          <mxGeometry relative="1" as="geometry">
            <mxPoint x="660" y="280.0000000000001" as="sourcePoint" />
          </mxGeometry>
        </mxCell>
        <mxCell id="0PUmPbpPbkksMGmGsOkH-31" value="&lt;font style=&quot;font-size: 18px&quot;&gt;TAS6424&lt;br&gt;1~2&lt;br&gt;&lt;/font&gt;" style="rounded=1;whiteSpace=wrap;html=1;strokeWidth=3;" vertex="1" parent="1">
          <mxGeometry x="620" y="340" width="80" height="80" as="geometry" />
        </mxCell>
        <mxCell id="0PUmPbpPbkksMGmGsOkH-32" value="运放供电/&lt;br&gt;DSP供电" style="text;html=1;align=center;verticalAlign=middle;resizable=0;points=[];autosize=1;" vertex="1" parent="1">
          <mxGeometry x="125" y="265" width="70" height="30" as="geometry" />
        </mxCell>
        <mxCell id="0PUmPbpPbkksMGmGsOkH-33" value="5V供电" style="text;html=1;align=center;verticalAlign=middle;resizable=0;points=[];autosize=1;" vertex="1" parent="1">
          <mxGeometry x="135" y="310" width="50" height="20" as="geometry" />
        </mxCell>
        <mxCell id="0PUmPbpPbkksMGmGsOkH-34" value="" style="shape=image;html=1;verticalAlign=top;verticalLabelPosition=bottom;labelBackgroundColor=#ffffff;imageAspect=0;aspect=fixed;image=https://cdn2.iconfinder.com/data/icons/fatcow/32x32/led.png;strokeWidth=3;" vertex="1" parent="1">
          <mxGeometry x="153" y="340" width="32" height="32" as="geometry" />
        </mxCell>
        <mxCell id="0PUmPbpPbkksMGmGsOkH-35" value="" style="shape=image;html=1;verticalAlign=top;verticalLabelPosition=bottom;labelBackgroundColor=#ffffff;imageAspect=0;aspect=fixed;image=https://cdn4.iconfinder.com/data/icons/logos-and-brands/512/49_Bluetooth_logo_logos-128.png;strokeWidth=3;" vertex="1" parent="1">
          <mxGeometry x="85" y="572" width="68" height="68" as="geometry" />
        </mxCell>
        <mxCell id="0PUmPbpPbkksMGmGsOkH-36" value="车辆供电电源" style="text;html=1;align=center;verticalAlign=middle;resizable=0;points=[];autosize=1;" vertex="1" parent="1">
          <mxGeometry x="99" y="400" width="90" height="20" as="geometry" />
        </mxCell>
        <mxCell id="0PUmPbpPbkksMGmGsOkH-37" value="" style="endArrow=classic;html=1;strokeWidth=3;" edge="1" parent="1">
          <mxGeometry relative="1" as="geometry">
            <mxPoint x="520" y="570.9999999999998" as="sourcePoint" />
            <mxPoint x="620" y="571" as="targetPoint" />
          </mxGeometry>
        </mxCell>
        <mxCell id="0PUmPbpPbkksMGmGsOkH-38" value="GPIO" style="edgeLabel;resizable=0;html=1;align=center;verticalAlign=middle;" connectable="0" vertex="1" parent="0PUmPbpPbkksMGmGsOkH-37">
          <mxGeometry relative="1" as="geometry" />
        </mxCell>
        <mxCell id="0PUmPbpPbkksMGmGsOkH-39" value="" style="endArrow=classic;html=1;strokeWidth=3;" edge="1" parent="1">
          <mxGeometry relative="1" as="geometry">
            <mxPoint x="320" y="529.9999999999998" as="sourcePoint" />
            <mxPoint x="200" y="530" as="targetPoint" />
          </mxGeometry>
        </mxCell>
        <mxCell id="0PUmPbpPbkksMGmGsOkH-40" value="GPIO" style="edgeLabel;resizable=0;html=1;align=center;verticalAlign=middle;" connectable="0" vertex="1" parent="0PUmPbpPbkksMGmGsOkH-39">
          <mxGeometry relative="1" as="geometry" />
        </mxCell>
        <mxCell id="0PUmPbpPbkksMGmGsOkH-41" value="&lt;font style=&quot;font-size: 18px&quot;&gt;PDN/ADC&lt;/font&gt;" style="rounded=1;whiteSpace=wrap;html=1;strokeWidth=3;" vertex="1" parent="1">
          <mxGeometry x="120" y="480" width="80" height="80" as="geometry" />
        </mxCell>
      </root>
    </mxGraphModel>
  </diagram>
  <diagram id="jrEG2JsMI8dMRp2-cBQI" name="DSP_Frame">
    <mxGraphModel dx="1942" dy="751" grid="1" gridSize="10" guides="1" tooltips="1" connect="1" arrows="1" fold="1" page="1" pageScale="1" pageWidth="827" pageHeight="1169" math="0" shadow="0">
      <root>
        <mxCell id="XTEcsdesxVOPlm1SOmjE-0" />
        <mxCell id="XTEcsdesxVOPlm1SOmjE-1" parent="XTEcsdesxVOPlm1SOmjE-0" />
        <mxCell id="XTEcsdesxVOPlm1SOmjE-3" value="" style="pointerEvents=1;verticalLabelPosition=bottom;shadow=0;dashed=0;align=center;html=1;verticalAlign=top;shape=mxgraph.electrical.electro-mechanical.loudspeaker;" vertex="1" parent="XTEcsdesxVOPlm1SOmjE-1">
          <mxGeometry x="700" y="160" width="25" height="50" as="geometry" />
        </mxCell>
        <mxCell id="XTEcsdesxVOPlm1SOmjE-6" value="" style="pointerEvents=1;verticalLabelPosition=bottom;shadow=0;dashed=0;align=center;html=1;verticalAlign=top;shape=mxgraph.electrical.electro-mechanical.loudspeaker;" vertex="1" parent="XTEcsdesxVOPlm1SOmjE-1">
          <mxGeometry x="710" y="250" width="25" height="50" as="geometry" />
        </mxCell>
        <mxCell id="XTEcsdesxVOPlm1SOmjE-7" value="" style="pointerEvents=1;verticalLabelPosition=bottom;shadow=0;dashed=0;align=center;html=1;verticalAlign=top;shape=mxgraph.electrical.electro-mechanical.loudspeaker;" vertex="1" parent="XTEcsdesxVOPlm1SOmjE-1">
          <mxGeometry x="710" y="330" width="25" height="50" as="geometry" />
        </mxCell>
        <mxCell id="XTEcsdesxVOPlm1SOmjE-8" value="" style="pointerEvents=1;verticalLabelPosition=bottom;shadow=0;dashed=0;align=center;html=1;verticalAlign=top;shape=mxgraph.electrical.electro-mechanical.loudspeaker;" vertex="1" parent="XTEcsdesxVOPlm1SOmjE-1">
          <mxGeometry x="725" y="410" width="25" height="50" as="geometry" />
        </mxCell>
        <mxCell id="XTEcsdesxVOPlm1SOmjE-9" value="混音模块&lt;br&gt;输入/输出分配" style="rounded=0;whiteSpace=wrap;html=1;strokeWidth=3;" vertex="1" parent="XTEcsdesxVOPlm1SOmjE-1">
          <mxGeometry x="-60" y="230" width="120" height="210" as="geometry" />
        </mxCell>
      </root>
    </mxGraphModel>
  </diagram>
</mxfile>
